<svg xmlns="http://www.w3.org/2000/svg" version="1.1" xmlns:xlink="http://www.w3.org/1999/xlink" xmlns:svgjs="http://svgjs.dev/svgjs" width="1440" height="560" preserveAspectRatio="none" viewBox="0 0 1440 560"><g mask="url(&quot;#SvgjsMask1990&quot;)" fill="none"><rect width="1440" height="560" x="0" y="0" fill="url(&quot;#SvgjsLinearGradient1991&quot;)"></rect><path d="M1440 0L1337.71 0L1440 260.56z" fill="rgba(255, 255, 255, .1)"></path><path d="M1337.71 0L1440 260.56L1440 279.88L1039.69 0z" fill="rgba(255, 255, 255, .075)"></path><path d="M1039.69 0L1440 279.88L1440 381.28L592.6100000000001 0z" fill="rgba(255, 255, 255, .05)"></path><path d="M592.61 0L1440 381.28L1440 426.55999999999995L406.1 0z" fill="rgba(255, 255, 255, .025)"></path><path d="M0 560L85.94 560L0 346.51z" fill="rgba(0, 0, 0, .1)"></path><path d="M0 346.51L85.94 560L616.9300000000001 560L0 250.16z" fill="rgba(0, 0, 0, .075)"></path><path d="M0 250.15999999999997L616.9300000000001 560L652.24 560L0 178.26999999999998z" fill="rgba(0, 0, 0, .05)"></path><path d="M0 178.26999999999998L652.24 560L911.6800000000001 560L0 81.77999999999999z" fill="rgba(0, 0, 0, .025)"></path></g><defs><mask id="SvgjsMask1990"><rect width="1440" height="560" fill="#ffffff"></rect></mask><linearGradient x1="15.28%" y1="-39.29%" x2="84.72%" y2="139.29%" gradientUnits="userSpaceOnUse" id="SvgjsLinearGradient1991"><stop stop-color="rgba(29, 32, 36, 1)" offset="0"></stop><stop stop-color="rgba(43, 52, 91, 1)" offset="1"></stop></linearGradient></defs></svg>