<svg id="visual" viewBox="0 0 4000 2000" width="4000" height="2000" xmlns="http://www.w3.org/2000/svg" xmlns:xlink="http://www.w3.org/1999/xlink" version="1.1"><g stroke-width="1" stroke-linejoin="bevel"><path d="M1980 1111.1L1795.8 1154.1L1936 1272.3Z" fill="#5136b9" stroke="#5136b9"></path><path d="M1795.8 1154.1L1844.8 1314.3L1936 1272.3Z" fill="#472ea5" stroke="#472ea5"></path><path d="M2170.2 1367.3L2189.2 1095.1L1980 1111.1Z" fill="#3d2691" stroke="#3d2691"></path><path d="M2189.2 1095.1L1990 876.9L1980 1111.1Z" fill="#4c32af" stroke="#4c32af"></path><path d="M1980 1111.1L1752.8 876.9L1795.8 1154.1Z" fill="#5c3ece" stroke="#5c3ece"></path><path d="M1498.6 1376.3L1843.8 1496.6L1844.8 1314.3Z" fill="#422a9b" stroke="#422a9b"></path><path d="M1844.8 1314.3L1843.8 1496.6L1936 1272.3Z" fill="#331f7e" stroke="#331f7e"></path><path d="M1936 1272.3L2170.2 1367.3L1980 1111.1Z" fill="#382388" stroke="#382388"></path><path d="M1990 876.9L1752.8 876.9L1980 1111.1Z" fill="#5136b9" stroke="#5136b9"></path><path d="M1795.8 1154.1L1498.6 1376.3L1844.8 1314.3Z" fill="#5c3ece" stroke="#5c3ece"></path><path d="M2059 1489.6L2170.2 1367.3L1936 1272.3Z" fill="#5c3ece" stroke="#5c3ece"></path><path d="M1843.8 1496.6L2059 1489.6L1936 1272.3Z" fill="#422a9b" stroke="#422a9b"></path><path d="M1752.8 876.9L1509.6 1096.1L1795.8 1154.1Z" fill="#382388" stroke="#382388"></path><path d="M1509.6 1096.1L1498.6 1376.3L1795.8 1154.1Z" fill="#472ea5" stroke="#472ea5"></path><path d="M1616.6 729.7L1557.6 834.9L1752.8 876.9Z" fill="#3d2691" stroke="#3d2691"></path><path d="M1752.8 876.9L1557.6 834.9L1509.6 1096.1Z" fill="#3d2691" stroke="#3d2691"></path><path d="M1934 1845.8L2160.2 1596.6L2059 1489.6Z" fill="#5136b9" stroke="#5136b9"></path><path d="M2059 1489.6L2160.2 1596.6L2170.2 1367.3Z" fill="#331f7e" stroke="#331f7e"></path><path d="M2455.4 900.9L2275.2 830.9L2189.2 1095.1Z" fill="#382388" stroke="#382388"></path><path d="M2275.2 830.9L2047 698.7L1990 876.9Z" fill="#6746e3" stroke="#6746e3"></path><path d="M1990 876.9L1741.8 645.7L1752.8 876.9Z" fill="#6746e3" stroke="#6746e3"></path><path d="M2430.4 1138.1L2189.2 1095.1L2170.2 1367.3Z" fill="#3d2691" stroke="#3d2691"></path><path d="M2189.2 1095.1L2275.2 830.9L1990 876.9Z" fill="#472ea5" stroke="#472ea5"></path><path d="M1741.8 645.7L1616.6 729.7L1752.8 876.9Z" fill="#331f7e" stroke="#331f7e"></path><path d="M2462.4 1312.3L2430.4 1138.1L2170.2 1367.3Z" fill="#6746e3" stroke="#6746e3"></path><path d="M2047 698.7L1741.8 645.7L1990 876.9Z" fill="#382388" stroke="#382388"></path><path d="M1498.6 1376.3L1503.6 1563.6L1843.8 1496.6Z" fill="#472ea5" stroke="#472ea5"></path><path d="M1843.8 1496.6L1934 1845.8L2059 1489.6Z" fill="#6242d8" stroke="#6242d8"></path><path d="M1302.3 644.7L1390.3 949.9L1557.6 834.9Z" fill="#5136b9" stroke="#5136b9"></path><path d="M1557.6 834.9L1390.3 949.9L1509.6 1096.1Z" fill="#573ac3" stroke="#573ac3"></path><path d="M1283.3 1141.1L1339.3 1392.3L1498.6 1376.3Z" fill="#6746e3" stroke="#6746e3"></path><path d="M1498.6 1376.3L1339.3 1392.3L1503.6 1563.6Z" fill="#6746e3" stroke="#6746e3"></path><path d="M2416.4 1489.6L2462.4 1312.3L2170.2 1367.3Z" fill="#5136b9" stroke="#5136b9"></path><path d="M1503.6 1563.6L1750.8 1745.8L1843.8 1496.6Z" fill="#472ea5" stroke="#472ea5"></path><path d="M1283.3 1141.1L1498.6 1376.3L1509.6 1096.1Z" fill="#3d2691" stroke="#3d2691"></path><path d="M2160.2 1596.6L2416.4 1489.6L2170.2 1367.3Z" fill="#3d2691" stroke="#3d2691"></path><path d="M1390.3 949.9L1283.3 1141.1L1509.6 1096.1Z" fill="#4c32af" stroke="#4c32af"></path><path d="M2430.4 1138.1L2455.4 900.9L2189.2 1095.1Z" fill="#5c3ece" stroke="#5c3ece"></path><path d="M2275.2 830.9L2162.2 603.7L2047 698.7Z" fill="#422a9b" stroke="#422a9b"></path><path d="M2619.7 1160.1L2455.4 900.9L2430.4 1138.1Z" fill="#573ac3" stroke="#573ac3"></path><path d="M2401.4 706.7L2162.2 603.7L2275.2 830.9Z" fill="#6242d8" stroke="#6242d8"></path><path d="M2047 698.7L2026 499.4L1741.8 645.7Z" fill="#6746e3" stroke="#6746e3"></path><path d="M1750.8 1745.8L1934 1845.8L1843.8 1496.6Z" fill="#472ea5" stroke="#472ea5"></path><path d="M2160.2 1596.6L2397.4 1822.8L2416.4 1489.6Z" fill="#573ac3" stroke="#573ac3"></path><path d="M1291.3 1489.6L1486.6 1707.8L1503.6 1563.6Z" fill="#331f7e" stroke="#331f7e"></path><path d="M1503.6 1563.6L1486.6 1707.8L1750.8 1745.8Z" fill="#5136b9" stroke="#5136b9"></path><path d="M1767.8 2000L1970 2000L1934 1845.8Z" fill="#3d2691" stroke="#3d2691"></path><path d="M1339.3 1392.3L1291.3 1489.6L1503.6 1563.6Z" fill="#331f7e" stroke="#331f7e"></path><path d="M1079.1 1269.3L1291.3 1489.6L1339.3 1392.3Z" fill="#3d2691" stroke="#3d2691"></path><path d="M2162.2 603.7L2026 499.4L2047 698.7Z" fill="#4c32af" stroke="#4c32af"></path><path d="M2455.4 900.9L2401.4 706.7L2275.2 830.9Z" fill="#5136b9" stroke="#5136b9"></path><path d="M2162.2 603.7L2216.2 433.4L2026 499.4Z" fill="#4c32af" stroke="#4c32af"></path><path d="M1934 1845.8L2220.2 1795.8L2160.2 1596.6Z" fill="#5136b9" stroke="#5136b9"></path><path d="M2669.7 1279.3L2619.7 1160.1L2462.4 1312.3Z" fill="#6746e3" stroke="#6746e3"></path><path d="M2462.4 1312.3L2619.7 1160.1L2430.4 1138.1Z" fill="#3d2691" stroke="#3d2691"></path><path d="M2455.4 900.9L2635.7 876.9L2401.4 706.7Z" fill="#472ea5" stroke="#472ea5"></path><path d="M1741.8 645.7L1594.6 404.4L1616.6 729.7Z" fill="#6746e3" stroke="#6746e3"></path><path d="M1616.6 729.7L1302.3 644.7L1557.6 834.9Z" fill="#5136b9" stroke="#5136b9"></path><path d="M2026 499.4L1732.8 449.4L1741.8 645.7Z" fill="#382388" stroke="#382388"></path><path d="M1390.3 949.9L1150.1 1102.1L1283.3 1141.1Z" fill="#5136b9" stroke="#5136b9"></path><path d="M1283.3 1141.1L1079.1 1269.3L1339.3 1392.3Z" fill="#331f7e" stroke="#331f7e"></path><path d="M1153.1 836.9L1150.1 1102.1L1390.3 949.9Z" fill="#331f7e" stroke="#331f7e"></path><path d="M2620.7 1560.6L2462.4 1312.3L2416.4 1489.6Z" fill="#422a9b" stroke="#422a9b"></path><path d="M2620.7 1560.6L2669.7 1279.3L2462.4 1312.3Z" fill="#331f7e" stroke="#331f7e"></path><path d="M2899.9 1124.1L2635.7 876.9L2619.7 1160.1Z" fill="#4c32af" stroke="#4c32af"></path><path d="M2619.7 1160.1L2635.7 876.9L2455.4 900.9Z" fill="#6746e3" stroke="#6746e3"></path><path d="M1594.6 404.4L1302.3 644.7L1616.6 729.7Z" fill="#5c3ece" stroke="#5c3ece"></path><path d="M2401.4 706.7L2216.2 433.4L2162.2 603.7Z" fill="#331f7e" stroke="#331f7e"></path><path d="M1946 164.2L1711.8 230.2L1732.8 449.4Z" fill="#4c32af" stroke="#4c32af"></path><path d="M2495.4 433.4L2216.2 433.4L2401.4 706.7Z" fill="#4c32af" stroke="#4c32af"></path><path d="M2391.4 2000L2397.4 1822.8L2220.2 1795.8Z" fill="#6242d8" stroke="#6242d8"></path><path d="M2220.2 1795.8L2397.4 1822.8L2160.2 1596.6Z" fill="#4c32af" stroke="#4c32af"></path><path d="M1302.3 644.7L1153.1 836.9L1390.3 949.9Z" fill="#5136b9" stroke="#5136b9"></path><path d="M2397.4 1822.8L2620.7 1560.6L2416.4 1489.6Z" fill="#5136b9" stroke="#5136b9"></path><path d="M952.9 1162.1L1079.1 1269.3L1150.1 1102.1Z" fill="#5c3ece" stroke="#5c3ece"></path><path d="M1150.1 1102.1L1079.1 1269.3L1283.3 1141.1Z" fill="#5c3ece" stroke="#5c3ece"></path><path d="M1291.3 1489.6L1350.3 1808.8L1486.6 1707.8Z" fill="#5136b9" stroke="#5136b9"></path><path d="M1767.8 2000L1934 1845.8L1750.8 1745.8Z" fill="#5136b9" stroke="#5136b9"></path><path d="M1934 1845.8L2169.2 2000L2220.2 1795.8Z" fill="#6242d8" stroke="#6242d8"></path><path d="M1711.8 230.2L1594.6 404.4L1732.8 449.4Z" fill="#6746e3" stroke="#6746e3"></path><path d="M1732.8 449.4L1594.6 404.4L1741.8 645.7Z" fill="#6242d8" stroke="#6242d8"></path><path d="M1500.6 2000L1767.8 2000L1750.8 1745.8Z" fill="#6242d8" stroke="#6242d8"></path><path d="M1104.1 1721.8L1350.3 1808.8L1291.3 1489.6Z" fill="#422a9b" stroke="#422a9b"></path><path d="M1486.6 1707.8L1500.6 2000L1750.8 1745.8Z" fill="#472ea5" stroke="#472ea5"></path><path d="M1302.3 644.7L1166.1 728.7L1153.1 836.9Z" fill="#382388" stroke="#382388"></path><path d="M915.9 857.9L952.9 1162.1L1150.1 1102.1Z" fill="#6242d8" stroke="#6242d8"></path><path d="M1161.1 404.4L1166.1 728.7L1302.3 644.7Z" fill="#573ac3" stroke="#573ac3"></path><path d="M1970 2000L2169.2 2000L1934 1845.8Z" fill="#3d2691" stroke="#3d2691"></path><path d="M2635.7 876.9L2602.7 598.7L2401.4 706.7Z" fill="#5c3ece" stroke="#5c3ece"></path><path d="M1350.3 1808.8L1500.6 2000L1486.6 1707.8Z" fill="#5136b9" stroke="#5136b9"></path><path d="M1079.1 1269.3L1061.1 1568.6L1291.3 1489.6Z" fill="#5136b9" stroke="#5136b9"></path><path d="M1350.3 1808.8L1294.3 2000L1500.6 2000Z" fill="#6746e3" stroke="#6746e3"></path><path d="M915.9 857.9L1150.1 1102.1L1153.1 836.9Z" fill="#6746e3" stroke="#6746e3"></path><path d="M1079.1 1269.3L940.9 1322.3L1061.1 1568.6Z" fill="#5136b9" stroke="#5136b9"></path><path d="M1594.6 404.4L1282.3 453.4L1302.3 644.7Z" fill="#6746e3" stroke="#6746e3"></path><path d="M921.9 718.7L915.9 857.9L1153.1 836.9Z" fill="#422a9b" stroke="#422a9b"></path><path d="M2602.7 598.7L2495.4 433.4L2401.4 706.7Z" fill="#4c32af" stroke="#4c32af"></path><path d="M1946 164.2L1732.8 449.4L2026 499.4Z" fill="#3d2691" stroke="#3d2691"></path><path d="M2169.2 2000L2391.4 2000L2220.2 1795.8Z" fill="#6242d8" stroke="#6242d8"></path><path d="M2733.7 1792.8L2821.9 1614.6L2620.7 1560.6Z" fill="#4c32af" stroke="#4c32af"></path><path d="M1946 164.2L2026 499.4L2216.2 433.4Z" fill="#6746e3" stroke="#6746e3"></path><path d="M1594.6 404.4L1282.3 188.2L1282.3 453.4Z" fill="#472ea5" stroke="#472ea5"></path><path d="M1061.1 1568.6L1104.1 1721.8L1291.3 1489.6Z" fill="#6242d8" stroke="#6242d8"></path><path d="M952.9 1162.1L940.9 1322.3L1079.1 1269.3Z" fill="#472ea5" stroke="#472ea5"></path><path d="M1061.1 1568.6L867.9 1560.6L1104.1 1721.8Z" fill="#6242d8" stroke="#6242d8"></path><path d="M2923.9 1358.3L2899.9 1124.1L2669.7 1279.3Z" fill="#4c32af" stroke="#4c32af"></path><path d="M2669.7 1279.3L2899.9 1124.1L2619.7 1160.1Z" fill="#573ac3" stroke="#573ac3"></path><path d="M2635.7 876.9L2921.9 713.7L2602.7 598.7Z" fill="#6746e3" stroke="#6746e3"></path><path d="M2923.9 1358.3L2669.7 1279.3L2620.7 1560.6Z" fill="#4c32af" stroke="#4c32af"></path><path d="M2602.7 598.7L2618.7 469.4L2495.4 433.4Z" fill="#6242d8" stroke="#6242d8"></path><path d="M2921.9 713.7L2618.7 469.4L2602.7 598.7Z" fill="#382388" stroke="#382388"></path><path d="M1711.8 230.2L1596.6 210.2L1594.6 404.4Z" fill="#3d2691" stroke="#3d2691"></path><path d="M2235.2 219.2L2216.2 433.4L2495.4 433.4Z" fill="#6242d8" stroke="#6242d8"></path><path d="M2235.2 219.2L1946 164.2L2216.2 433.4Z" fill="#4c32af" stroke="#4c32af"></path><path d="M1711.8 230.2L1592.6 0L1596.6 210.2Z" fill="#472ea5" stroke="#472ea5"></path><path d="M2426.4 165.2L2235.2 219.2L2495.4 433.4Z" fill="#382388" stroke="#382388"></path><path d="M1104.1 1721.8L1294.3 2000L1350.3 1808.8Z" fill="#573ac3" stroke="#573ac3"></path><path d="M2733.7 1792.8L2620.7 1560.6L2397.4 1822.8Z" fill="#382388" stroke="#382388"></path><path d="M921.9 718.7L1153.1 836.9L1166.1 728.7Z" fill="#331f7e" stroke="#331f7e"></path><path d="M691.7 1295.3L867.9 1560.6L940.9 1322.3Z" fill="#472ea5" stroke="#472ea5"></path><path d="M2726.7 2000L2733.7 1792.8L2397.4 1822.8Z" fill="#3d2691" stroke="#3d2691"></path><path d="M2821.9 1614.6L2923.9 1358.3L2620.7 1560.6Z" fill="#4c32af" stroke="#4c32af"></path><path d="M1282.3 188.2L1161.1 404.4L1282.3 453.4Z" fill="#6242d8" stroke="#6242d8"></path><path d="M1282.3 453.4L1161.1 404.4L1302.3 644.7Z" fill="#382388" stroke="#382388"></path><path d="M3108.1 879.9L2946.9 931.9L3180.1 1064.1Z" fill="#5136b9" stroke="#5136b9"></path><path d="M2899.9 1124.1L2946.9 931.9L2635.7 876.9Z" fill="#6746e3" stroke="#6746e3"></path><path d="M1161.1 404.4L921.9 718.7L1166.1 728.7Z" fill="#5c3ece" stroke="#5c3ece"></path><path d="M691.7 1295.3L940.9 1322.3L952.9 1162.1Z" fill="#6242d8" stroke="#6242d8"></path><path d="M940.9 1322.3L867.9 1560.6L1061.1 1568.6Z" fill="#331f7e" stroke="#331f7e"></path><path d="M1104.1 1721.8L1067.1 2000L1294.3 2000Z" fill="#4c32af" stroke="#4c32af"></path><path d="M701.7 1147.1L952.9 1162.1L915.9 857.9Z" fill="#573ac3" stroke="#573ac3"></path><path d="M2946.9 931.9L2921.9 713.7L2635.7 876.9Z" fill="#331f7e" stroke="#331f7e"></path><path d="M2660.7 248.2L2426.4 165.2L2495.4 433.4Z" fill="#573ac3" stroke="#573ac3"></path><path d="M1988 0L1831.8 0L1946 164.2Z" fill="#5136b9" stroke="#5136b9"></path><path d="M2660.7 248.2L2495.4 433.4L2618.7 469.4Z" fill="#3d2691" stroke="#3d2691"></path><path d="M1372.3 0L1282.3 188.2L1596.6 210.2Z" fill="#6242d8" stroke="#6242d8"></path><path d="M1596.6 210.2L1282.3 188.2L1594.6 404.4Z" fill="#422a9b" stroke="#422a9b"></path><path d="M664.7 692.7L725.7 820.9L921.9 718.7Z" fill="#422a9b" stroke="#422a9b"></path><path d="M2733.7 1792.8L2926.9 1805.8L2821.9 1614.6Z" fill="#6242d8" stroke="#6242d8"></path><path d="M3126.1 1598.6L3146.1 1324.3L2923.9 1358.3Z" fill="#5136b9" stroke="#5136b9"></path><path d="M2391.4 2000L2726.7 2000L2397.4 1822.8Z" fill="#422a9b" stroke="#422a9b"></path><path d="M903.9 1824.8L1067.1 2000L1104.1 1721.8Z" fill="#472ea5" stroke="#472ea5"></path><path d="M1988 0L1946 164.2L2235.2 219.2Z" fill="#331f7e" stroke="#331f7e"></path><path d="M1946 164.2L1831.8 0L1711.8 230.2Z" fill="#5c3ece" stroke="#5c3ece"></path><path d="M2251.2 0L1988 0L2235.2 219.2Z" fill="#5136b9" stroke="#5136b9"></path><path d="M867.9 1560.6L903.9 1824.8L1104.1 1721.8Z" fill="#331f7e" stroke="#331f7e"></path><path d="M725.7 820.9L701.7 1147.1L915.9 857.9Z" fill="#5136b9" stroke="#5136b9"></path><path d="M867.9 1560.6L711.7 1814.8L903.9 1824.8Z" fill="#5c3ece" stroke="#5c3ece"></path><path d="M2857.9 236.2L2660.7 248.2L2618.7 469.4Z" fill="#6746e3" stroke="#6746e3"></path><path d="M2426.4 165.2L2251.2 0L2235.2 219.2Z" fill="#331f7e" stroke="#331f7e"></path><path d="M2834.9 2000L2926.9 1805.8L2733.7 1792.8Z" fill="#5136b9" stroke="#5136b9"></path><path d="M3180.1 1064.1L2946.9 931.9L2899.9 1124.1Z" fill="#5c3ece" stroke="#5c3ece"></path><path d="M701.7 1147.1L691.7 1295.3L952.9 1162.1Z" fill="#5136b9" stroke="#5136b9"></path><path d="M1831.8 0L1592.6 0L1711.8 230.2Z" fill="#422a9b" stroke="#422a9b"></path><path d="M921.9 718.7L725.7 820.9L915.9 857.9Z" fill="#472ea5" stroke="#472ea5"></path><path d="M849.9 481.4L921.9 718.7L1161.1 404.4Z" fill="#3d2691" stroke="#3d2691"></path><path d="M2431.4 0L2251.2 0L2426.4 165.2Z" fill="#5136b9" stroke="#5136b9"></path><path d="M3146.1 1324.3L2899.9 1124.1L2923.9 1358.3Z" fill="#573ac3" stroke="#573ac3"></path><path d="M2946.9 931.9L3108.1 879.9L2921.9 713.7Z" fill="#3d2691" stroke="#3d2691"></path><path d="M2921.9 713.7L2947.9 404.4L2618.7 469.4Z" fill="#573ac3" stroke="#573ac3"></path><path d="M2726.7 2000L2834.9 2000L2733.7 1792.8Z" fill="#422a9b" stroke="#422a9b"></path><path d="M827.9 258.2L849.9 481.4L1161.1 404.4Z" fill="#4c32af" stroke="#4c32af"></path><path d="M3126.1 1598.6L2923.9 1358.3L2821.9 1614.6Z" fill="#6746e3" stroke="#6746e3"></path><path d="M3146.1 1324.3L3180.1 1064.1L2899.9 1124.1Z" fill="#5c3ece" stroke="#5c3ece"></path><path d="M1592.6 0L1372.3 0L1596.6 210.2Z" fill="#472ea5" stroke="#472ea5"></path><path d="M1282.3 188.2L1075.1 178.2L1161.1 404.4Z" fill="#331f7e" stroke="#331f7e"></path><path d="M3108.1 879.9L3058.1 615.7L2921.9 713.7Z" fill="#5c3ece" stroke="#5c3ece"></path><path d="M3150.1 446.4L3058.1 615.7L3298.3 439.4Z" fill="#6242d8" stroke="#6242d8"></path><path d="M2613.7 0L2431.4 0L2426.4 165.2Z" fill="#4c32af" stroke="#4c32af"></path><path d="M2613.7 0L2426.4 165.2L2660.7 248.2Z" fill="#472ea5" stroke="#472ea5"></path><path d="M1058.1 0L1075.1 178.2L1282.3 188.2Z" fill="#6746e3" stroke="#6746e3"></path><path d="M3098.1 1723.8L3126.1 1598.6L2821.9 1614.6Z" fill="#6242d8" stroke="#6242d8"></path><path d="M3146.1 1324.3L3342.3 1157.1L3180.1 1064.1Z" fill="#422a9b" stroke="#422a9b"></path><path d="M3098.1 1723.8L2821.9 1614.6L2926.9 1805.8Z" fill="#4c32af" stroke="#4c32af"></path><path d="M3058.1 615.7L2947.9 404.4L2921.9 713.7Z" fill="#4c32af" stroke="#4c32af"></path><path d="M3059.1 2000L3098.1 1723.8L2926.9 1805.8Z" fill="#382388" stroke="#382388"></path><path d="M435.4 1562.6L631.7 1561.6L389.4 1324.3Z" fill="#472ea5" stroke="#472ea5"></path><path d="M691.7 1295.3L631.7 1561.6L867.9 1560.6Z" fill="#422a9b" stroke="#422a9b"></path><path d="M903.9 1824.8L826.9 2000L1067.1 2000Z" fill="#3d2691" stroke="#3d2691"></path><path d="M422.4 1085.1L691.7 1295.3L701.7 1147.1Z" fill="#6746e3" stroke="#6746e3"></path><path d="M849.9 481.4L664.7 692.7L921.9 718.7Z" fill="#422a9b" stroke="#422a9b"></path><path d="M725.7 820.9L422.4 1085.1L701.7 1147.1Z" fill="#6242d8" stroke="#6242d8"></path><path d="M608.7 411.4L664.7 692.7L849.9 481.4Z" fill="#5c3ece" stroke="#5c3ece"></path><path d="M2947.9 404.4L2857.9 236.2L2618.7 469.4Z" fill="#472ea5" stroke="#472ea5"></path><path d="M631.7 1561.6L711.7 1814.8L867.9 1560.6Z" fill="#3d2691" stroke="#3d2691"></path><path d="M711.7 1814.8L826.9 2000L903.9 1824.8Z" fill="#3d2691" stroke="#3d2691"></path><path d="M2825.9 0L2613.7 0L2660.7 248.2Z" fill="#3d2691" stroke="#3d2691"></path><path d="M853.9 0L827.9 258.2L1075.1 178.2Z" fill="#4c32af" stroke="#4c32af"></path><path d="M1075.1 178.2L827.9 258.2L1161.1 404.4Z" fill="#331f7e" stroke="#331f7e"></path><path d="M2834.9 2000L3059.1 2000L2926.9 1805.8Z" fill="#331f7e" stroke="#331f7e"></path><path d="M3353.3 1290.3L3146.1 1324.3L3317.3 1616.6Z" fill="#573ac3" stroke="#573ac3"></path><path d="M1372.3 0L1058.1 0L1282.3 188.2Z" fill="#4c32af" stroke="#4c32af"></path><path d="M3353.3 1290.3L3342.3 1157.1L3146.1 1324.3Z" fill="#472ea5" stroke="#472ea5"></path><path d="M3180.1 1064.1L3397.3 899.9L3108.1 879.9Z" fill="#472ea5" stroke="#472ea5"></path><path d="M3058.1 615.7L3150.1 446.4L2947.9 404.4Z" fill="#5c3ece" stroke="#5c3ece"></path><path d="M3146.1 1324.3L3126.1 1598.6L3317.3 1616.6Z" fill="#573ac3" stroke="#573ac3"></path><path d="M2947.9 404.4L3093.1 182.2L2857.9 236.2Z" fill="#6746e3" stroke="#6746e3"></path><path d="M2857.9 236.2L2825.9 0L2660.7 248.2Z" fill="#6746e3" stroke="#6746e3"></path><path d="M3402.3 662.7L3058.1 615.7L3108.1 879.9Z" fill="#6746e3" stroke="#6746e3"></path><path d="M3267.3 1708.8L3126.1 1598.6L3098.1 1723.8Z" fill="#4c32af" stroke="#4c32af"></path><path d="M3059.1 2000L3267.3 1708.8L3098.1 1723.8Z" fill="#3d2691" stroke="#3d2691"></path><path d="M392.4 922.9L725.7 820.9L424.4 720.7Z" fill="#331f7e" stroke="#331f7e"></path><path d="M392.4 922.9L422.4 1085.1L725.7 820.9Z" fill="#5136b9" stroke="#5136b9"></path><path d="M631.7 1561.6L453.4 1723.8L711.7 1814.8Z" fill="#5c3ece" stroke="#5c3ece"></path><path d="M3267.3 1708.8L3317.3 1616.6L3126.1 1598.6Z" fill="#422a9b" stroke="#422a9b"></path><path d="M3062.1 0L2825.9 0L2857.9 236.2Z" fill="#5136b9" stroke="#5136b9"></path><path d="M696.7 170.2L608.7 411.4L827.9 258.2Z" fill="#331f7e" stroke="#331f7e"></path><path d="M827.9 258.2L608.7 411.4L849.9 481.4Z" fill="#4c32af" stroke="#4c32af"></path><path d="M389.4 1324.3L631.7 1561.6L691.7 1295.3Z" fill="#422a9b" stroke="#422a9b"></path><path d="M711.7 1814.8L607.7 2000L826.9 2000Z" fill="#5136b9" stroke="#5136b9"></path><path d="M422.4 1085.1L389.4 1324.3L691.7 1295.3Z" fill="#5c3ece" stroke="#5c3ece"></path><path d="M3502.6 1124.1L3397.3 899.9L3342.3 1157.1Z" fill="#6746e3" stroke="#6746e3"></path><path d="M3342.3 1157.1L3397.3 899.9L3180.1 1064.1Z" fill="#422a9b" stroke="#422a9b"></path><path d="M3502.6 1124.1L3342.3 1157.1L3353.3 1290.3Z" fill="#382388" stroke="#382388"></path><path d="M424.4 720.7L725.7 820.9L664.7 692.7Z" fill="#422a9b" stroke="#422a9b"></path><path d="M422.4 1085.1L220.2 1087.1L389.4 1324.3Z" fill="#382388" stroke="#382388"></path><path d="M453.4 1723.8L607.7 2000L711.7 1814.8Z" fill="#573ac3" stroke="#573ac3"></path><path d="M608.7 411.4L424.4 720.7L664.7 692.7Z" fill="#382388" stroke="#382388"></path><path d="M204.2 1792.8L453.4 1723.8L435.4 1562.6Z" fill="#382388" stroke="#382388"></path><path d="M435.4 1562.6L453.4 1723.8L631.7 1561.6Z" fill="#3d2691" stroke="#3d2691"></path><path d="M3282.3 166.2L3093.1 182.2L3150.1 446.4Z" fill="#6746e3" stroke="#6746e3"></path><path d="M3150.1 446.4L3093.1 182.2L2947.9 404.4Z" fill="#331f7e" stroke="#331f7e"></path><path d="M853.9 0L696.7 170.2L827.9 258.2Z" fill="#422a9b" stroke="#422a9b"></path><path d="M608.7 411.4L405.4 436.4L424.4 720.7Z" fill="#573ac3" stroke="#573ac3"></path><path d="M1058.1 0L853.9 0L1075.1 178.2Z" fill="#6746e3" stroke="#6746e3"></path><path d="M3402.3 662.7L3298.3 439.4L3058.1 615.7Z" fill="#5136b9" stroke="#5136b9"></path><path d="M3397.3 899.9L3402.3 662.7L3108.1 879.9Z" fill="#422a9b" stroke="#422a9b"></path><path d="M3618.6 1334.3L3502.6 1124.1L3353.3 1290.3Z" fill="#382388" stroke="#382388"></path><path d="M3397.3 899.9L3503.6 922.9L3402.3 662.7Z" fill="#6242d8" stroke="#6242d8"></path><path d="M3502.6 1124.1L3503.6 922.9L3397.3 899.9Z" fill="#422a9b" stroke="#422a9b"></path><path d="M3280.3 0L3062.1 0L3093.1 182.2Z" fill="#472ea5" stroke="#472ea5"></path><path d="M3093.1 182.2L3062.1 0L2857.9 236.2Z" fill="#5136b9" stroke="#5136b9"></path><path d="M410.4 187.2L608.7 411.4L696.7 170.2Z" fill="#573ac3" stroke="#573ac3"></path><path d="M410.4 187.2L405.4 436.4L608.7 411.4Z" fill="#472ea5" stroke="#472ea5"></path><path d="M157.2 867.9L220.2 1087.1L392.4 922.9Z" fill="#3d2691" stroke="#3d2691"></path><path d="M3059.1 2000L3355.3 2000L3267.3 1708.8Z" fill="#422a9b" stroke="#422a9b"></path><path d="M3267.3 1708.8L3601.6 1719.8L3317.3 1616.6Z" fill="#6746e3" stroke="#6746e3"></path><path d="M3612.6 1501.6L3618.6 1334.3L3353.3 1290.3Z" fill="#3d2691" stroke="#3d2691"></path><path d="M157.2 867.9L392.4 922.9L424.4 720.7Z" fill="#6746e3" stroke="#6746e3"></path><path d="M392.4 922.9L220.2 1087.1L422.4 1085.1Z" fill="#382388" stroke="#382388"></path><path d="M389.4 1324.3L193.2 1510.6L435.4 1562.6Z" fill="#6242d8" stroke="#6242d8"></path><path d="M453.4 1723.8L429.4 2000L607.7 2000Z" fill="#6242d8" stroke="#6242d8"></path><path d="M204.2 1792.8L429.4 2000L453.4 1723.8Z" fill="#331f7e" stroke="#331f7e"></path><path d="M220.2 1087.1L202.2 1284.3L389.4 1324.3Z" fill="#4c32af" stroke="#4c32af"></path><path d="M3490.6 271.2L3282.3 166.2L3298.3 439.4Z" fill="#3d2691" stroke="#3d2691"></path><path d="M3298.3 439.4L3282.3 166.2L3150.1 446.4Z" fill="#5136b9" stroke="#5136b9"></path><path d="M3576.6 435.4L3298.3 439.4L3402.3 662.7Z" fill="#422a9b" stroke="#422a9b"></path><path d="M3612.6 1501.6L3353.3 1290.3L3317.3 1616.6Z" fill="#5c3ece" stroke="#5c3ece"></path><path d="M3502.6 1124.1L3803.8 948.9L3503.6 922.9Z" fill="#331f7e" stroke="#331f7e"></path><path d="M853.9 0L630.7 0L696.7 170.2Z" fill="#3d2691" stroke="#3d2691"></path><path d="M202.2 1284.3L193.2 1510.6L389.4 1324.3Z" fill="#382388" stroke="#382388"></path><path d="M3601.6 1719.8L3612.6 1501.6L3317.3 1616.6Z" fill="#4c32af" stroke="#4c32af"></path><path d="M188.2 650.7L157.2 867.9L424.4 720.7Z" fill="#573ac3" stroke="#573ac3"></path><path d="M220.2 1087.1L0 1152.1L202.2 1284.3Z" fill="#472ea5" stroke="#472ea5"></path><path d="M202.2 1284.3L0 1328.3L193.2 1510.6Z" fill="#573ac3" stroke="#573ac3"></path><path d="M188.2 650.7L424.4 720.7L405.4 436.4Z" fill="#573ac3" stroke="#573ac3"></path><path d="M630.7 0L410.4 187.2L696.7 170.2Z" fill="#472ea5" stroke="#472ea5"></path><path d="M228.2 442.4L188.2 650.7L405.4 436.4Z" fill="#422a9b" stroke="#422a9b"></path><path d="M3355.3 2000L3601.6 1719.8L3267.3 1708.8Z" fill="#6746e3" stroke="#6746e3"></path><path d="M3803.8 948.9L3613.6 632.7L3503.6 922.9Z" fill="#573ac3" stroke="#573ac3"></path><path d="M3503.6 922.9L3613.6 632.7L3402.3 662.7Z" fill="#6746e3" stroke="#6746e3"></path><path d="M0 1564.6L204.2 1792.8L193.2 1510.6Z" fill="#331f7e" stroke="#331f7e"></path><path d="M193.2 1510.6L204.2 1792.8L435.4 1562.6Z" fill="#472ea5" stroke="#472ea5"></path><path d="M3558.6 0L3280.3 0L3282.3 166.2Z" fill="#382388" stroke="#382388"></path><path d="M3282.3 166.2L3280.3 0L3093.1 182.2Z" fill="#5c3ece" stroke="#5c3ece"></path><path d="M273.2 180.2L228.2 442.4L405.4 436.4Z" fill="#4c32af" stroke="#4c32af"></path><path d="M3576.6 435.4L3490.6 271.2L3298.3 439.4Z" fill="#382388" stroke="#382388"></path><path d="M3613.6 632.7L3576.6 435.4L3402.3 662.7Z" fill="#5c3ece" stroke="#5c3ece"></path><path d="M3355.3 2000L3539.6 2000L3601.6 1719.8Z" fill="#573ac3" stroke="#573ac3"></path><path d="M204.2 1792.8L236.2 2000L429.4 2000Z" fill="#573ac3" stroke="#573ac3"></path><path d="M3612.6 1501.6L3725.8 1514.6L3618.6 1334.3Z" fill="#3d2691" stroke="#3d2691"></path><path d="M3618.6 1334.3L3772.8 1299.3L3502.6 1124.1Z" fill="#6746e3" stroke="#6746e3"></path><path d="M3601.6 1719.8L3725.8 1514.6L3612.6 1501.6Z" fill="#6242d8" stroke="#6242d8"></path><path d="M3808.8 1714.8L3725.8 1514.6L3601.6 1719.8Z" fill="#6746e3" stroke="#6746e3"></path><path d="M3725.8 1514.6L3772.8 1299.3L3618.6 1334.3Z" fill="#6746e3" stroke="#6746e3"></path><path d="M3613.6 632.7L3834.8 442.4L3576.6 435.4Z" fill="#573ac3" stroke="#573ac3"></path><path d="M630.7 0L428.4 0L410.4 187.2Z" fill="#6242d8" stroke="#6242d8"></path><path d="M410.4 187.2L273.2 180.2L405.4 436.4Z" fill="#6746e3" stroke="#6746e3"></path><path d="M0 915.9L220.2 1087.1L157.2 867.9Z" fill="#382388" stroke="#382388"></path><path d="M0 915.9L0 1152.1L220.2 1087.1Z" fill="#5136b9" stroke="#5136b9"></path><path d="M204.2 1792.8L0 1837.8L236.2 2000Z" fill="#573ac3" stroke="#573ac3"></path><path d="M0 915.9L157.2 867.9L0 648.7Z" fill="#382388" stroke="#382388"></path><path d="M0 1152.1L0 1328.3L202.2 1284.3Z" fill="#6242d8" stroke="#6242d8"></path><path d="M428.4 0L273.2 180.2L410.4 187.2Z" fill="#3d2691" stroke="#3d2691"></path><path d="M0 648.7L157.2 867.9L188.2 650.7Z" fill="#382388" stroke="#382388"></path><path d="M0 648.7L188.2 650.7L0 408.4Z" fill="#6746e3" stroke="#6746e3"></path><path d="M3829.8 1119.1L3803.8 948.9L3502.6 1124.1Z" fill="#331f7e" stroke="#331f7e"></path><path d="M3772.8 1299.3L3829.8 1119.1L3502.6 1124.1Z" fill="#6746e3" stroke="#6746e3"></path><path d="M4000 1164.1L3829.8 1119.1L4000 1280.3Z" fill="#472ea5" stroke="#472ea5"></path><path d="M0 1328.3L0 1564.6L193.2 1510.6Z" fill="#5c3ece" stroke="#5c3ece"></path><path d="M0 408.4L188.2 650.7L228.2 442.4Z" fill="#422a9b" stroke="#422a9b"></path><path d="M3785.8 2000L3808.8 1714.8L3601.6 1719.8Z" fill="#4c32af" stroke="#4c32af"></path><path d="M4000 1280.3L3829.8 1119.1L3772.8 1299.3Z" fill="#472ea5" stroke="#472ea5"></path><path d="M0 1564.6L0 1837.8L204.2 1792.8Z" fill="#422a9b" stroke="#422a9b"></path><path d="M4000 863.9L3832.8 613.7L3803.8 948.9Z" fill="#472ea5" stroke="#472ea5"></path><path d="M3803.8 948.9L3832.8 613.7L3613.6 632.7Z" fill="#382388" stroke="#382388"></path><path d="M3809.8 167.2L3558.6 0L3490.6 271.2Z" fill="#3d2691" stroke="#3d2691"></path><path d="M3490.6 271.2L3558.6 0L3282.3 166.2Z" fill="#331f7e" stroke="#331f7e"></path><path d="M428.4 0L250.2 0L273.2 180.2Z" fill="#6746e3" stroke="#6746e3"></path><path d="M0 197.2L0 408.4L228.2 442.4Z" fill="#472ea5" stroke="#472ea5"></path><path d="M3809.8 167.2L3490.6 271.2L3576.6 435.4Z" fill="#5c3ece" stroke="#5c3ece"></path><path d="M0 197.2L228.2 442.4L273.2 180.2Z" fill="#472ea5" stroke="#472ea5"></path><path d="M3539.6 2000L3785.8 2000L3601.6 1719.8Z" fill="#422a9b" stroke="#422a9b"></path><path d="M0 1837.8L0 2000L236.2 2000Z" fill="#5136b9" stroke="#5136b9"></path><path d="M4000 647.7L3834.8 442.4L3832.8 613.7Z" fill="#6242d8" stroke="#6242d8"></path><path d="M3832.8 613.7L3834.8 442.4L3613.6 632.7Z" fill="#6242d8" stroke="#6242d8"></path><path d="M4000 1280.3L3772.8 1299.3L4000 1534.6Z" fill="#6746e3" stroke="#6746e3"></path><path d="M3829.8 1119.1L4000 863.9L3803.8 948.9Z" fill="#6746e3" stroke="#6746e3"></path><path d="M3772.8 1299.3L3725.8 1514.6L4000 1534.6Z" fill="#382388" stroke="#382388"></path><path d="M4000 1534.6L3725.8 1514.6L3808.8 1714.8Z" fill="#5136b9" stroke="#5136b9"></path><path d="M4000 1164.1L4000 863.9L3829.8 1119.1Z" fill="#4c32af" stroke="#4c32af"></path><path d="M4000 1829.8L4000 1534.6L3808.8 1714.8Z" fill="#3d2691" stroke="#3d2691"></path><path d="M250.2 0L0 197.2L273.2 180.2Z" fill="#422a9b" stroke="#422a9b"></path><path d="M3834.8 442.4L3809.8 167.2L3576.6 435.4Z" fill="#422a9b" stroke="#422a9b"></path><path d="M4000 270.2L3809.8 167.2L3834.8 442.4Z" fill="#3d2691" stroke="#3d2691"></path><path d="M4000 863.9L4000 647.7L3832.8 613.7Z" fill="#5136b9" stroke="#5136b9"></path><path d="M3785.8 2000L4000 1829.8L3808.8 1714.8Z" fill="#422a9b" stroke="#422a9b"></path><path d="M4000 0L3788.8 0L3809.8 167.2Z" fill="#6746e3" stroke="#6746e3"></path><path d="M3809.8 167.2L3788.8 0L3558.6 0Z" fill="#5c3ece" stroke="#5c3ece"></path><path d="M250.2 0L0 0L0 197.2Z" fill="#5c3ece" stroke="#5c3ece"></path><path d="M4000 647.7L4000 380.4L3834.8 442.4Z" fill="#422a9b" stroke="#422a9b"></path><path d="M3785.8 2000L4000 2000L4000 1829.8Z" fill="#382388" stroke="#382388"></path><path d="M4000 380.4L4000 270.2L3834.8 442.4Z" fill="#422a9b" stroke="#422a9b"></path><path d="M4000 270.2L4000 0L3809.8 167.2Z" fill="#6242d8" stroke="#6242d8"></path></g></svg>